<svg width="1289" height="301" viewBox="0 0 1289 301" fill="none" xmlns="http://www.w3.org/2000/svg">
<rect width="1289" height="301" fill="white"/>
<mask id="path-1-outside-1_460_7" maskUnits="userSpaceOnUse" x="60" y="82" width="1174" height="122" fill="black">
<rect fill="white" x="60" y="82" width="1174" height="122"/>
<path d="M61.1562 201V84.5938H106.938C115.792 84.5938 123.318 86.2865 129.516 89.6719C135.766 93.0573 140.531 97.7188 143.812 103.656C147.094 109.594 148.734 116.417 148.734 124.125C148.734 131.833 147.068 138.63 143.734 144.516C140.401 150.401 135.583 155.01 129.281 158.344C122.979 161.625 115.349 163.266 106.391 163.266H85.6875V201H61.1562ZM85.6875 143.578H102.328C109.464 143.578 114.75 141.781 118.188 138.188C121.677 134.542 123.422 129.854 123.422 124.125C123.422 118.292 121.677 113.604 118.188 110.062C114.698 106.521 109.385 104.75 102.25 104.75H85.6875V143.578ZM221.972 202.562C211.659 202.562 202.389 200.219 194.159 195.531C185.93 190.844 179.42 184.047 174.628 175.141C169.836 166.234 167.441 155.479 167.441 142.875C167.441 130.167 169.836 119.359 174.628 110.453C179.42 101.547 185.93 94.75 194.159 90.0625C202.389 85.375 211.659 83.0312 221.972 83.0312C232.284 83.0312 241.529 85.375 249.706 90.0625C257.935 94.75 264.446 101.547 269.238 110.453C274.029 119.359 276.425 130.167 276.425 142.875C276.425 155.583 274.029 166.391 269.238 175.297C264.446 184.151 257.935 190.922 249.706 195.609C241.529 200.245 232.284 202.562 221.972 202.562ZM192.363 142.875C192.363 155.167 195.045 164.568 200.409 171.078C205.826 177.589 213.014 180.844 221.972 180.844C230.878 180.844 238.014 177.589 243.378 171.078C248.795 164.568 251.503 155.167 251.503 142.875C251.503 130.531 248.795 121.104 243.378 114.594C238.014 108.031 230.878 104.75 221.972 104.75C213.014 104.75 205.826 108.031 200.409 114.594C195.045 121.104 192.363 130.531 192.363 142.875ZM299.506 201V84.5938H345.288C354.142 84.5938 361.668 86.2865 367.866 89.6719C374.116 93.0573 378.881 97.7188 382.163 103.656C385.444 109.594 387.084 116.417 387.084 124.125C387.084 131.833 385.418 138.63 382.084 144.516C378.751 150.401 373.933 155.01 367.631 158.344C361.329 161.625 353.699 163.266 344.741 163.266H324.038V201H299.506ZM324.038 143.578H340.678C347.814 143.578 353.1 141.781 356.538 138.188C360.027 134.542 361.772 129.854 361.772 124.125C361.772 118.292 360.027 113.604 356.538 110.062C353.048 106.521 347.735 104.75 340.6 104.75H324.038V143.578ZM432.431 84.5938V201H407.9V84.5938H432.431ZM554.888 84.5938V201H533.559L483.013 127.797H482.075V201H457.544V84.5938H479.106L529.341 157.797H530.356V84.5938H554.888Z"/>
<path d="M580 201V84.5938H658.438V104.906H604.531V132.25H654.297V152.172H604.531V180.688H658.594V201H580ZM703.784 84.5938L731.831 173.031H733.003L761.128 84.5938H788.394L748.237 201H716.597L676.362 84.5938H703.784ZM807.1 201V84.5938H885.537V104.906H831.631V132.25H881.397V152.172H831.631V180.688H885.694V201H807.1ZM1007.21 84.5938V201H985.884L935.338 127.797H934.4V201H909.869V84.5938H931.431L981.666 157.797H982.681V84.5938H1007.21ZM1027.87 104.906V84.5938H1123.42V104.906H1087.95V201H1063.42V104.906H1027.87ZM1187.28 202.641C1173.17 202.641 1161.89 199.411 1153.45 192.953C1145.07 186.495 1140.69 176.99 1140.33 164.438H1164.16C1164.57 170.271 1166.86 174.672 1171.03 177.641C1175.25 180.557 1180.56 182.016 1186.97 182.016C1193.22 182.016 1198.22 180.688 1201.97 178.031C1205.77 175.375 1207.67 171.911 1207.67 167.641C1207.67 163.734 1205.95 160.74 1202.52 158.656C1199.08 156.521 1194.18 154.698 1187.83 153.188L1175.09 150.062C1165.3 147.719 1157.57 143.995 1151.89 138.891C1146.27 133.734 1143.45 126.859 1143.45 118.266C1143.45 111.234 1145.35 105.089 1149.16 99.8281C1152.96 94.5156 1158.17 90.401 1164.78 87.4844C1171.45 84.5156 1179.03 83.0312 1187.52 83.0312C1196.16 83.0312 1203.71 84.5156 1210.17 87.4844C1216.63 90.4531 1221.66 94.5677 1225.25 99.8281C1228.9 105.089 1230.77 111.156 1230.88 118.031H1207.12C1206.71 113.5 1204.78 109.958 1201.34 107.406C1197.91 104.854 1193.24 103.578 1187.36 103.578C1181.37 103.578 1176.76 104.828 1173.53 107.328C1170.3 109.776 1168.69 112.901 1168.69 116.703C1168.69 120.818 1170.48 123.943 1174.08 126.078C1177.67 128.161 1181.99 129.802 1187.05 131L1197.44 133.578C1204.21 135.089 1210.22 137.302 1215.48 140.219C1220.74 143.083 1224.89 146.781 1227.91 151.312C1230.93 155.792 1232.44 161.26 1232.44 167.719C1232.44 178.396 1228.45 186.885 1220.48 193.188C1212.52 199.49 1201.45 202.641 1187.28 202.641Z"/>
</mask>
<path d="M61.1562 201V84.5938H106.938C115.792 84.5938 123.318 86.2865 129.516 89.6719C135.766 93.0573 140.531 97.7188 143.812 103.656C147.094 109.594 148.734 116.417 148.734 124.125C148.734 131.833 147.068 138.63 143.734 144.516C140.401 150.401 135.583 155.01 129.281 158.344C122.979 161.625 115.349 163.266 106.391 163.266H85.6875V201H61.1562ZM85.6875 143.578H102.328C109.464 143.578 114.75 141.781 118.188 138.188C121.677 134.542 123.422 129.854 123.422 124.125C123.422 118.292 121.677 113.604 118.188 110.062C114.698 106.521 109.385 104.75 102.25 104.75H85.6875V143.578ZM221.972 202.562C211.659 202.562 202.389 200.219 194.159 195.531C185.93 190.844 179.42 184.047 174.628 175.141C169.836 166.234 167.441 155.479 167.441 142.875C167.441 130.167 169.836 119.359 174.628 110.453C179.42 101.547 185.93 94.75 194.159 90.0625C202.389 85.375 211.659 83.0312 221.972 83.0312C232.284 83.0312 241.529 85.375 249.706 90.0625C257.935 94.75 264.446 101.547 269.238 110.453C274.029 119.359 276.425 130.167 276.425 142.875C276.425 155.583 274.029 166.391 269.238 175.297C264.446 184.151 257.935 190.922 249.706 195.609C241.529 200.245 232.284 202.562 221.972 202.562ZM192.363 142.875C192.363 155.167 195.045 164.568 200.409 171.078C205.826 177.589 213.014 180.844 221.972 180.844C230.878 180.844 238.014 177.589 243.378 171.078C248.795 164.568 251.503 155.167 251.503 142.875C251.503 130.531 248.795 121.104 243.378 114.594C238.014 108.031 230.878 104.75 221.972 104.75C213.014 104.75 205.826 108.031 200.409 114.594C195.045 121.104 192.363 130.531 192.363 142.875ZM299.506 201V84.5938H345.288C354.142 84.5938 361.668 86.2865 367.866 89.6719C374.116 93.0573 378.881 97.7188 382.163 103.656C385.444 109.594 387.084 116.417 387.084 124.125C387.084 131.833 385.418 138.63 382.084 144.516C378.751 150.401 373.933 155.01 367.631 158.344C361.329 161.625 353.699 163.266 344.741 163.266H324.038V201H299.506ZM324.038 143.578H340.678C347.814 143.578 353.1 141.781 356.538 138.188C360.027 134.542 361.772 129.854 361.772 124.125C361.772 118.292 360.027 113.604 356.538 110.062C353.048 106.521 347.735 104.75 340.6 104.75H324.038V143.578ZM432.431 84.5938V201H407.9V84.5938H432.431ZM554.888 84.5938V201H533.559L483.013 127.797H482.075V201H457.544V84.5938H479.106L529.341 157.797H530.356V84.5938H554.888Z" fill="#5E00FF"/>
<path d="M61.1562 201H60.1562V202H61.1562V201ZM61.1562 84.5938V83.5938H60.1562V84.5938H61.1562ZM129.516 89.6719L129.036 90.5495L129.039 90.5512L129.516 89.6719ZM129.281 158.344L129.743 159.231L129.749 159.228L129.281 158.344ZM85.6875 163.266V162.266H84.6875V163.266H85.6875ZM85.6875 201V202H86.6875V201H85.6875ZM85.6875 143.578H84.6875V144.578H85.6875V143.578ZM118.188 138.188L117.465 137.496L117.465 137.496L118.188 138.188ZM85.6875 104.75V103.75H84.6875V104.75H85.6875ZM61.1562 201H62.1562V84.5938H61.1562H60.1562V201H61.1562ZM61.1562 84.5938V85.5938H106.938V84.5938V83.5938H61.1562V84.5938ZM106.938 84.5938V85.5938C115.666 85.5938 123.018 87.2623 129.036 90.5495L129.516 89.6719L129.995 88.7943C123.617 85.3107 115.917 83.5938 106.938 83.5938V84.5938ZM129.516 89.6719L129.039 90.5512C135.13 93.8501 139.753 98.3779 142.937 104.14L143.812 103.656L144.688 103.173C141.31 97.0596 136.402 92.2645 129.992 88.7926L129.516 89.6719ZM143.812 103.656L142.937 104.14C146.126 109.91 147.734 116.562 147.734 124.125H148.734H149.734C149.734 116.271 148.061 109.277 144.688 103.173L143.812 103.656ZM148.734 124.125H147.734C147.734 131.685 146.101 138.308 142.864 144.023L143.734 144.516L144.605 145.008C148.034 138.953 149.734 131.982 149.734 124.125H148.734ZM143.734 144.516L142.864 144.023C139.63 149.733 134.957 154.211 128.814 157.46L129.281 158.344L129.749 159.228C136.21 155.81 141.172 151.069 144.605 145.008L143.734 144.516ZM129.281 158.344L128.819 157.457C122.692 160.647 115.229 162.266 106.391 162.266V163.266V164.266C115.469 164.266 123.266 162.603 129.743 159.231L129.281 158.344ZM106.391 163.266V162.266H85.6875V163.266V164.266H106.391V163.266ZM85.6875 163.266H84.6875V201H85.6875H86.6875V163.266H85.6875ZM85.6875 201V200H61.1562V201V202H85.6875V201ZM85.6875 143.578V144.578H102.328V143.578V142.578H85.6875V143.578ZM102.328 143.578V144.578C109.616 144.578 115.215 142.742 118.91 138.879L118.188 138.188L117.465 137.496C114.285 140.82 109.311 142.578 102.328 142.578V143.578ZM118.188 138.188L118.91 138.879C122.602 135.021 124.422 130.074 124.422 124.125H123.422H122.422C122.422 129.634 120.752 134.062 117.465 137.496L118.188 138.188ZM123.422 124.125H124.422C124.422 118.078 122.605 113.122 118.9 109.361L118.188 110.062L117.475 110.764C120.749 114.087 122.422 118.505 122.422 124.125H123.422ZM118.188 110.062L118.9 109.361C115.153 105.558 109.536 103.75 102.25 103.75V104.75V105.75C109.235 105.75 114.242 107.483 117.475 110.764L118.188 110.062ZM102.25 104.75V103.75H85.6875V104.75V105.75H102.25V104.75ZM85.6875 104.75H84.6875V143.578H85.6875H86.6875V104.75H85.6875ZM194.159 195.531L193.664 196.4L194.159 195.531ZM194.159 90.0625L193.664 89.1936L194.159 90.0625ZM249.706 90.0625L249.209 90.9301L249.211 90.9314L249.706 90.0625ZM269.238 175.297L270.117 175.773L270.118 175.771L269.238 175.297ZM249.706 195.609L250.199 196.479L250.201 196.478L249.706 195.609ZM200.409 171.078L199.638 171.714L199.641 171.718L200.409 171.078ZM243.378 171.078L242.609 170.439L242.606 170.442L243.378 171.078ZM243.378 114.594L242.604 115.227L242.609 115.233L243.378 114.594ZM200.409 114.594L199.638 113.957L199.638 113.958L200.409 114.594ZM221.972 202.562V201.562C211.817 201.562 202.719 199.256 194.654 194.662L194.159 195.531L193.664 196.4C202.058 201.181 211.502 203.562 221.972 203.562V202.562ZM194.159 195.531L194.654 194.662C186.599 190.074 180.218 183.419 175.509 174.667L174.628 175.141L173.747 175.614C178.622 184.674 185.261 191.613 193.664 196.4L194.159 195.531ZM174.628 175.141L175.509 174.667C170.812 165.938 168.441 155.354 168.441 142.875H167.441H166.441C166.441 155.604 168.86 166.531 173.747 175.614L174.628 175.141ZM167.441 142.875H168.441C168.441 130.29 170.813 119.655 175.509 110.927L174.628 110.453L173.747 109.979C168.86 119.064 166.441 130.043 166.441 142.875H167.441ZM174.628 110.453L175.509 110.927C180.218 102.174 186.599 95.5196 194.654 90.9314L194.159 90.0625L193.664 89.1936C185.261 93.9804 178.622 100.919 173.747 109.979L174.628 110.453ZM194.159 90.0625L194.654 90.9314C202.719 86.3374 211.817 84.0312 221.972 84.0312V83.0312V82.0312C211.502 82.0312 202.058 84.4126 193.664 89.1936L194.159 90.0625ZM221.972 83.0312V84.0312C232.127 84.0312 241.197 86.3374 249.209 90.9301L249.706 90.0625L250.204 89.1949C241.861 84.4126 232.442 82.0312 221.972 82.0312V83.0312ZM249.706 90.0625L249.211 90.9314C257.266 95.5196 263.648 102.174 268.357 110.927L269.238 110.453L270.118 109.979C265.244 100.919 258.605 93.9804 250.201 89.1936L249.706 90.0625ZM269.238 110.453L268.357 110.927C273.053 119.655 275.425 130.29 275.425 142.875H276.425H277.425C277.425 130.043 275.006 119.064 270.118 109.979L269.238 110.453ZM276.425 142.875H275.425C275.425 155.46 273.053 166.095 268.357 174.823L269.238 175.297L270.118 175.771C275.006 166.686 277.425 155.707 277.425 142.875H276.425ZM269.238 175.297L268.358 174.821C263.649 183.522 257.268 190.151 249.211 194.74L249.706 195.609L250.201 196.478C258.603 191.692 265.242 184.781 270.117 175.773L269.238 175.297ZM249.706 195.609L249.213 194.739C241.201 199.281 232.129 201.562 221.972 201.562V202.562V203.562C232.44 203.562 241.858 201.208 250.199 196.479L249.706 195.609ZM192.363 142.875H191.363C191.363 155.296 194.071 164.958 199.638 171.714L200.409 171.078L201.181 170.442C196.019 164.177 193.363 155.038 193.363 142.875H192.363ZM200.409 171.078L199.641 171.718C205.26 178.471 212.736 181.844 221.972 181.844V180.844V179.844C213.291 179.844 206.393 176.706 201.178 170.439L200.409 171.078ZM221.972 180.844V181.844C231.158 181.844 238.584 178.469 244.15 171.714L243.378 171.078L242.606 170.442C237.444 176.708 230.599 179.844 221.972 179.844V180.844ZM243.378 171.078L244.147 171.718C249.768 164.962 252.503 155.297 252.503 142.875H251.503H250.503C250.503 155.036 247.822 164.174 242.609 170.439L243.378 171.078ZM251.503 142.875H252.503C252.503 130.402 249.768 120.711 244.147 113.954L243.378 114.594L242.609 115.233C247.821 121.498 250.503 130.661 250.503 142.875H251.503ZM243.378 114.594L244.152 113.961C238.587 107.153 231.161 103.75 221.972 103.75V104.75V105.75C230.596 105.75 237.44 108.91 242.604 115.227L243.378 114.594ZM221.972 104.75V103.75C212.733 103.75 205.256 107.151 199.638 113.957L200.409 114.594L201.181 115.23C206.396 108.912 213.294 105.75 221.972 105.75V104.75ZM200.409 114.594L199.638 113.958C194.071 120.714 191.363 130.404 191.363 142.875H192.363H193.363C193.363 130.659 196.019 121.494 201.181 115.23L200.409 114.594ZM299.506 201H298.506V202H299.506V201ZM299.506 84.5938V83.5938H298.506V84.5938H299.506ZM367.866 89.6719L367.386 90.5495L367.389 90.5512L367.866 89.6719ZM367.631 158.344L368.093 159.231L368.099 159.228L367.631 158.344ZM324.038 163.266V162.266H323.038V163.266H324.038ZM324.038 201V202H325.038V201H324.038ZM324.038 143.578H323.038V144.578H324.038V143.578ZM356.538 138.188L355.815 137.496L355.815 137.496L356.538 138.188ZM324.038 104.75V103.75H323.038V104.75H324.038ZM299.506 201H300.506V84.5938H299.506H298.506V201H299.506ZM299.506 84.5938V85.5938H345.288V84.5938V83.5938H299.506V84.5938ZM345.288 84.5938V85.5938C354.016 85.5938 361.368 87.2623 367.386 90.5495L367.866 89.6719L368.345 88.7943C361.967 85.3107 354.267 83.5938 345.288 83.5938V84.5938ZM367.866 89.6719L367.389 90.5512C373.48 93.8501 378.103 98.3779 381.287 104.14L382.163 103.656L383.038 103.173C379.66 97.0596 374.752 92.2645 368.342 88.7926L367.866 89.6719ZM382.163 103.656L381.287 104.14C384.476 109.91 386.084 116.562 386.084 124.125H387.084H388.084C388.084 116.271 386.411 109.277 383.038 103.173L382.163 103.656ZM387.084 124.125H386.084C386.084 131.685 384.451 138.308 381.214 144.023L382.084 144.516L382.955 145.008C386.384 138.953 388.084 131.982 388.084 124.125H387.084ZM382.084 144.516L381.214 144.023C377.98 149.733 373.307 154.211 367.164 157.46L367.631 158.344L368.099 159.228C374.56 155.81 379.522 151.069 382.955 145.008L382.084 144.516ZM367.631 158.344L367.169 157.457C361.042 160.647 353.579 162.266 344.741 162.266V163.266V164.266C353.819 164.266 361.616 162.603 368.093 159.231L367.631 158.344ZM344.741 163.266V162.266H324.038V163.266V164.266H344.741V163.266ZM324.038 163.266H323.038V201H324.038H325.038V163.266H324.038ZM324.038 201V200H299.506V201V202H324.038V201ZM324.038 143.578V144.578H340.678V143.578V142.578H324.038V143.578ZM340.678 143.578V144.578C347.966 144.578 353.565 142.742 357.26 138.879L356.538 138.188L355.815 137.496C352.635 140.82 347.661 142.578 340.678 142.578V143.578ZM356.538 138.188L357.26 138.879C360.952 135.021 362.772 130.074 362.772 124.125H361.772H360.772C360.772 129.634 359.102 134.062 355.815 137.496L356.538 138.188ZM361.772 124.125H362.772C362.772 118.078 360.955 113.122 357.25 109.361L356.538 110.062L355.825 110.764C359.099 114.087 360.772 118.505 360.772 124.125H361.772ZM356.538 110.062L357.25 109.361C353.503 105.558 347.886 103.75 340.6 103.75V104.75V105.75C347.585 105.75 352.592 107.483 355.825 110.764L356.538 110.062ZM340.6 104.75V103.75H324.038V104.75V105.75H340.6V104.75ZM324.038 104.75H323.038V143.578H324.038H325.038V104.75H324.038ZM432.431 84.5938H433.431V83.5938H432.431V84.5938ZM432.431 201V202H433.431V201H432.431ZM407.9 201H406.9V202H407.9V201ZM407.9 84.5938V83.5938H406.9V84.5938H407.9ZM432.431 84.5938H431.431V201H432.431H433.431V84.5938H432.431ZM432.431 201V200H407.9V201V202H432.431V201ZM407.9 201H408.9V84.5938H407.9H406.9V201H407.9ZM407.9 84.5938V85.5938H432.431V84.5938V83.5938H407.9V84.5938ZM554.888 84.5938H555.888V83.5938H554.888V84.5938ZM554.888 201V202H555.888V201H554.888ZM533.559 201L532.737 201.568L533.035 202H533.559V201ZM483.013 127.797L483.835 127.229L483.537 126.797H483.013V127.797ZM482.075 127.797V126.797H481.075V127.797H482.075ZM482.075 201V202H483.075V201H482.075ZM457.544 201H456.544V202H457.544V201ZM457.544 84.5938V83.5938H456.544V84.5938H457.544ZM479.106 84.5938L479.931 84.0279L479.633 83.5938H479.106V84.5938ZM529.341 157.797L528.516 158.363L528.814 158.797H529.341V157.797ZM530.356 157.797V158.797H531.356V157.797H530.356ZM530.356 84.5938V83.5938H529.356V84.5938H530.356ZM554.888 84.5938H553.888V201H554.888H555.888V84.5938H554.888ZM554.888 201V200H533.559V201V202H554.888V201ZM533.559 201L534.382 200.432L483.835 127.229L483.013 127.797L482.19 128.365L532.737 201.568L533.559 201ZM483.013 127.797V126.797H482.075V127.797V128.797H483.013V127.797ZM482.075 127.797H481.075V201H482.075H483.075V127.797H482.075ZM482.075 201V200H457.544V201V202H482.075V201ZM457.544 201H458.544V84.5938H457.544H456.544V201H457.544ZM457.544 84.5938V85.5938H479.106V84.5938V83.5938H457.544V84.5938ZM479.106 84.5938L478.282 85.1596L528.516 158.363L529.341 157.797L530.165 157.231L479.931 84.0279L479.106 84.5938ZM529.341 157.797V158.797H530.356V157.797V156.797H529.341V157.797ZM530.356 157.797H531.356V84.5938H530.356H529.356V157.797H530.356ZM530.356 84.5938V85.5938H554.888V84.5938V83.5938H530.356V84.5938ZM580 201H579V202H580V201ZM580 84.5938V83.5938H579V84.5938H580ZM658.438 84.5938H659.438V83.5938H658.438V84.5938ZM658.438 104.906V105.906H659.438V104.906H658.438ZM604.531 104.906V103.906H603.531V104.906H604.531ZM604.531 132.25H603.531V133.25H604.531V132.25ZM654.297 132.25H655.297V131.25H654.297V132.25ZM654.297 152.172V153.172H655.297V152.172H654.297ZM604.531 152.172V151.172H603.531V152.172H604.531ZM604.531 180.688H603.531V181.688H604.531V180.688ZM658.594 180.688H659.594V179.688H658.594V180.688ZM658.594 201V202H659.594V201H658.594ZM580 201H581V84.5938H580H579V201H580ZM580 84.5938V85.5938H658.438V84.5938V83.5938H580V84.5938ZM658.438 84.5938H657.438V104.906H658.438H659.438V84.5938H658.438ZM658.438 104.906V103.906H604.531V104.906V105.906H658.438V104.906ZM604.531 104.906H603.531V132.25H604.531H605.531V104.906H604.531ZM604.531 132.25V133.25H654.297V132.25V131.25H604.531V132.25ZM654.297 132.25H653.297V152.172H654.297H655.297V132.25H654.297ZM654.297 152.172V151.172H604.531V152.172V153.172H654.297V152.172ZM604.531 152.172H603.531V180.688H604.531H605.531V152.172H604.531ZM604.531 180.688V181.688H658.594V180.688V179.688H604.531V180.688ZM658.594 180.688H657.594V201H658.594H659.594V180.688H658.594ZM658.594 201V200H580V201V202H658.594V201ZM703.784 84.5938L704.738 84.2915L704.516 83.5938H703.784V84.5938ZM731.831 173.031L730.878 173.334L731.099 174.031H731.831V173.031ZM733.003 173.031V174.031H733.734L733.956 173.334L733.003 173.031ZM761.128 84.5938V83.5938H760.397L760.175 84.2907L761.128 84.5938ZM788.394 84.5938L789.339 84.9199L789.797 83.5938H788.394V84.5938ZM748.237 201V202H748.95L749.183 201.326L748.237 201ZM716.597 201L715.652 201.327L715.884 202H716.597V201ZM676.362 84.5938V83.5938H674.959L675.417 84.9204L676.362 84.5938ZM703.784 84.5938L702.831 84.896L730.878 173.334L731.831 173.031L732.784 172.729L704.738 84.2915L703.784 84.5938ZM731.831 173.031V174.031H733.003V173.031V172.031H731.831V173.031ZM733.003 173.031L733.956 173.334L762.081 84.8968L761.128 84.5938L760.175 84.2907L732.05 172.728L733.003 173.031ZM761.128 84.5938V85.5938H788.394V84.5938V83.5938H761.128V84.5938ZM788.394 84.5938L787.448 84.2676L747.292 200.674L748.237 201L749.183 201.326L789.339 84.9199L788.394 84.5938ZM748.237 201V200H716.597V201V202H748.237V201ZM716.597 201L717.542 200.673L677.308 84.2671L676.362 84.5938L675.417 84.9204L715.652 201.327L716.597 201ZM676.362 84.5938V85.5938H703.784V84.5938V83.5938H676.362V84.5938ZM807.1 201H806.1V202H807.1V201ZM807.1 84.5938V83.5938H806.1V84.5938H807.1ZM885.537 84.5938H886.537V83.5938H885.537V84.5938ZM885.537 104.906V105.906H886.537V104.906H885.537ZM831.631 104.906V103.906H830.631V104.906H831.631ZM831.631 132.25H830.631V133.25H831.631V132.25ZM881.397 132.25H882.397V131.25H881.397V132.25ZM881.397 152.172V153.172H882.397V152.172H881.397ZM831.631 152.172V151.172H830.631V152.172H831.631ZM831.631 180.688H830.631V181.688H831.631V180.688ZM885.694 180.688H886.694V179.688H885.694V180.688ZM885.694 201V202H886.694V201H885.694ZM807.1 201H808.1V84.5938H807.1H806.1V201H807.1ZM807.1 84.5938V85.5938H885.537V84.5938V83.5938H807.1V84.5938ZM885.537 84.5938H884.537V104.906H885.537H886.537V84.5938H885.537ZM885.537 104.906V103.906H831.631V104.906V105.906H885.537V104.906ZM831.631 104.906H830.631V132.25H831.631H832.631V104.906H831.631ZM831.631 132.25V133.25H881.397V132.25V131.25H831.631V132.25ZM881.397 132.25H880.397V152.172H881.397H882.397V132.25H881.397ZM881.397 152.172V151.172H831.631V152.172V153.172H881.397V152.172ZM831.631 152.172H830.631V180.688H831.631H832.631V152.172H831.631ZM831.631 180.688V181.688H885.694V180.688V179.688H831.631V180.688ZM885.694 180.688H884.694V201H885.694H886.694V180.688H885.694ZM885.694 201V200H807.1V201V202H885.694V201ZM1007.21 84.5938H1008.21V83.5938H1007.21V84.5938ZM1007.21 201V202H1008.21V201H1007.21ZM985.884 201L985.062 201.568L985.36 202H985.884V201ZM935.338 127.797L936.16 127.229L935.862 126.797H935.338V127.797ZM934.4 127.797V126.797H933.4V127.797H934.4ZM934.4 201V202H935.4V201H934.4ZM909.869 201H908.869V202H909.869V201ZM909.869 84.5938V83.5938H908.869V84.5938H909.869ZM931.431 84.5938L932.256 84.0279L931.958 83.5938H931.431V84.5938ZM981.666 157.797L980.841 158.363L981.139 158.797H981.666V157.797ZM982.681 157.797V158.797H983.681V157.797H982.681ZM982.681 84.5938V83.5938H981.681V84.5938H982.681ZM1007.21 84.5938H1006.21V201H1007.21H1008.21V84.5938H1007.21ZM1007.21 201V200H985.884V201V202H1007.21V201ZM985.884 201L986.707 200.432L936.16 127.229L935.338 127.797L934.515 128.365L985.062 201.568L985.884 201ZM935.338 127.797V126.797H934.4V127.797V128.797H935.338V127.797ZM934.4 127.797H933.4V201H934.4H935.4V127.797H934.4ZM934.4 201V200H909.869V201V202H934.4V201ZM909.869 201H910.869V84.5938H909.869H908.869V201H909.869ZM909.869 84.5938V85.5938H931.431V84.5938V83.5938H909.869V84.5938ZM931.431 84.5938L930.607 85.1596L980.841 158.363L981.666 157.797L982.49 157.231L932.256 84.0279L931.431 84.5938ZM981.666 157.797V158.797H982.681V157.797V156.797H981.666V157.797ZM982.681 157.797H983.681V84.5938H982.681H981.681V157.797H982.681ZM982.681 84.5938V85.5938H1007.21V84.5938V83.5938H982.681V84.5938ZM1027.87 104.906H1026.87V105.906H1027.87V104.906ZM1027.87 84.5938V83.5938H1026.87V84.5938H1027.87ZM1123.42 84.5938H1124.42V83.5938H1123.42V84.5938ZM1123.42 104.906V105.906H1124.42V104.906H1123.42ZM1087.95 104.906V103.906H1086.95V104.906H1087.95ZM1087.95 201V202H1088.95V201H1087.95ZM1063.42 201H1062.42V202H1063.42V201ZM1063.42 104.906H1064.42V103.906H1063.42V104.906ZM1027.87 104.906H1028.87V84.5938H1027.87H1026.87V104.906H1027.87ZM1027.87 84.5938V85.5938H1123.42V84.5938V83.5938H1027.87V84.5938ZM1123.42 84.5938H1122.42V104.906H1123.42H1124.42V84.5938H1123.42ZM1123.42 104.906V103.906H1087.95V104.906V105.906H1123.42V104.906ZM1087.95 104.906H1086.95V201H1087.95H1088.95V104.906H1087.95ZM1087.95 201V200H1063.42V201V202H1087.95V201ZM1063.42 201H1064.42V104.906H1063.42H1062.42V201H1063.42ZM1063.42 104.906V103.906H1027.87V104.906V105.906H1063.42V104.906ZM1153.45 192.953L1152.84 193.745L1152.85 193.747L1153.45 192.953ZM1140.33 164.438V163.438H1139.3L1139.33 164.467L1140.33 164.438ZM1164.16 164.438L1165.15 164.366L1165.09 163.438H1164.16V164.438ZM1171.03 177.641L1170.45 178.455L1170.46 178.459L1170.46 178.463L1171.03 177.641ZM1201.97 178.031L1201.4 177.211L1201.39 177.215L1201.97 178.031ZM1202.52 158.656L1201.99 159.506L1202 159.511L1202.52 158.656ZM1187.83 153.188L1187.59 154.159L1187.6 154.16L1187.83 153.188ZM1175.09 150.062L1175.33 149.091L1175.33 149.09L1175.09 150.062ZM1151.89 138.891L1151.21 139.628L1151.22 139.634L1151.89 138.891ZM1149.16 99.8281L1149.97 100.414L1149.97 100.41L1149.16 99.8281ZM1164.78 87.4844L1165.18 88.3994L1165.19 88.3979L1164.78 87.4844ZM1210.17 87.4844L1209.75 88.393L1210.17 87.4844ZM1225.25 99.8281L1224.42 100.392L1224.43 100.398L1225.25 99.8281ZM1230.88 118.031V119.031H1231.89L1231.87 118.016L1230.88 118.031ZM1207.12 118.031L1206.13 118.123L1206.21 119.031H1207.12V118.031ZM1173.53 107.328L1174.14 108.125L1174.14 108.119L1173.53 107.328ZM1174.08 126.078L1173.57 126.938L1173.58 126.943L1174.08 126.078ZM1187.05 131L1187.29 130.029L1187.28 130.027L1187.05 131ZM1197.44 133.578L1197.2 134.549L1197.21 134.552L1197.22 134.554L1197.44 133.578ZM1215.48 140.219L1215 141.093L1215.01 141.097L1215.48 140.219ZM1227.91 151.312L1227.07 151.867L1227.08 151.872L1227.91 151.312ZM1187.28 202.641V201.641C1173.31 201.641 1162.27 198.446 1154.06 192.159L1153.45 192.953L1152.85 193.747C1161.51 200.377 1173.02 203.641 1187.28 203.641V202.641ZM1153.45 192.953L1154.06 192.161C1145.96 185.92 1141.69 176.723 1141.33 164.408L1140.33 164.438L1139.33 164.467C1139.7 177.256 1144.17 187.069 1152.84 193.745L1153.45 192.953ZM1140.33 164.438V165.438H1164.16V164.438V163.438H1140.33V164.438ZM1164.16 164.438L1163.16 164.509C1163.59 170.592 1166 175.287 1170.45 178.455L1171.03 177.641L1171.61 176.826C1167.72 174.057 1165.55 169.95 1165.15 164.366L1164.16 164.438ZM1171.03 177.641L1170.46 178.463C1174.89 181.521 1180.41 183.016 1186.97 183.016V182.016V181.016C1180.71 181.016 1175.61 179.593 1171.6 176.818L1171.03 177.641ZM1186.97 182.016V183.016C1193.35 183.016 1198.58 181.659 1202.55 178.847L1201.97 178.031L1201.39 177.215C1197.86 179.716 1193.08 181.016 1186.97 181.016V182.016ZM1201.97 178.031L1202.54 178.851C1206.58 176.027 1208.67 172.27 1208.67 167.641H1207.67H1206.67C1206.67 171.553 1204.96 174.723 1201.4 177.211L1201.97 178.031ZM1207.67 167.641H1208.67C1208.67 163.372 1206.76 160.059 1203.03 157.801L1202.52 158.656L1202 159.511C1205.15 161.42 1206.67 164.096 1206.67 167.641H1207.67ZM1202.52 158.656L1203.04 157.807C1199.48 155.591 1194.46 153.737 1188.06 152.215L1187.83 153.188L1187.6 154.16C1193.9 155.659 1198.68 157.451 1201.99 159.506L1202.52 158.656ZM1187.83 153.188L1188.07 152.216L1175.33 149.091L1175.09 150.062L1174.86 151.034L1187.59 154.159L1187.83 153.188ZM1175.09 150.062L1175.33 149.09C1165.65 146.773 1158.08 143.11 1152.56 138.147L1151.89 138.891L1151.22 139.634C1157.06 144.88 1164.96 148.664 1174.86 151.035L1175.09 150.062ZM1151.89 138.891L1152.57 138.153C1147.18 133.212 1144.45 126.618 1144.45 118.266H1143.45H1142.45C1142.45 127.101 1145.36 134.257 1151.21 139.628L1151.89 138.891ZM1143.45 118.266H1144.45C1144.45 111.426 1146.3 105.489 1149.97 100.414L1149.16 99.8281L1148.35 99.2423C1144.41 104.688 1142.45 111.043 1142.45 118.266H1143.45ZM1149.16 99.8281L1149.97 100.41C1153.66 95.2585 1158.72 91.2517 1165.18 88.3994L1164.78 87.4844L1164.38 86.5694C1157.62 89.5504 1152.26 93.7728 1148.34 99.2461L1149.16 99.8281ZM1164.78 87.4844L1165.19 88.3979C1171.71 85.4947 1179.14 84.0312 1187.52 84.0312V83.0312V82.0312C1178.91 82.0312 1171.19 83.5365 1164.37 86.5709L1164.78 87.4844ZM1187.52 83.0312V84.0312C1196.05 84.0312 1203.45 85.496 1209.75 88.393L1210.17 87.4844L1210.59 86.5758C1203.98 83.5352 1196.28 82.0312 1187.52 82.0312V83.0312ZM1210.17 87.4844L1209.75 88.393C1216.07 91.295 1220.94 95.2983 1224.42 100.392L1225.25 99.8281L1226.08 99.264C1222.37 93.8371 1217.19 89.6113 1210.59 86.5758L1210.17 87.4844ZM1225.25 99.8281L1224.43 100.398C1227.95 105.483 1229.77 111.354 1229.88 118.046L1230.88 118.031L1231.87 118.016C1231.77 110.958 1229.84 104.694 1226.07 99.2585L1225.25 99.8281ZM1230.88 118.031V117.031H1207.12V118.031V119.031H1230.88V118.031ZM1207.12 118.031L1208.12 117.94C1207.68 113.145 1205.62 109.337 1201.94 106.603L1201.34 107.406L1200.75 108.209C1203.94 110.58 1205.74 113.855 1206.13 118.123L1207.12 118.031ZM1201.34 107.406L1201.94 106.603C1198.28 103.883 1193.38 102.578 1187.36 102.578V103.578V104.578C1193.11 104.578 1197.54 105.825 1200.75 108.209L1201.34 107.406ZM1187.36 103.578V102.578C1181.25 102.578 1176.39 103.851 1172.92 106.537L1173.53 107.328L1174.14 108.119C1177.13 105.805 1181.49 104.578 1187.36 104.578V103.578ZM1173.53 107.328L1172.93 106.531C1169.47 109.154 1167.69 112.565 1167.69 116.703H1168.69H1169.69C1169.69 113.237 1171.14 110.398 1174.14 108.125L1173.53 107.328ZM1168.69 116.703H1167.69C1167.69 121.177 1169.68 124.626 1173.57 126.938L1174.08 126.078L1174.59 125.218C1171.29 123.26 1169.69 120.458 1169.69 116.703H1168.69ZM1174.08 126.078L1173.58 126.943C1177.27 129.086 1181.69 130.758 1186.82 131.973L1187.05 131L1187.28 130.027C1182.3 128.846 1178.07 127.237 1174.58 125.213L1174.08 126.078ZM1187.05 131L1186.81 131.971L1197.2 134.549L1197.44 133.578L1197.68 132.608L1187.29 130.029L1187.05 131ZM1197.44 133.578L1197.22 134.554C1203.91 136.047 1209.83 138.23 1215 141.093L1215.48 140.219L1215.97 139.344C1210.61 136.375 1204.51 134.13 1197.66 132.602L1197.44 133.578ZM1215.48 140.219L1215.01 141.097C1220.14 143.892 1224.15 147.484 1227.07 151.867L1227.91 151.312L1228.74 150.758C1225.62 146.079 1221.35 142.275 1215.96 139.341L1215.48 140.219ZM1227.91 151.312L1227.08 151.872C1229.97 156.156 1231.44 161.42 1231.44 167.719H1232.44H1233.44C1233.44 161.101 1231.89 155.428 1228.74 150.753L1227.91 151.312ZM1232.44 167.719H1231.44C1231.44 178.108 1227.58 186.302 1219.86 192.403L1220.48 193.188L1221.1 193.972C1229.33 187.469 1233.44 178.684 1233.44 167.719H1232.44ZM1220.48 193.188L1219.86 192.403C1212.13 198.52 1201.31 201.641 1187.28 201.641V202.641V203.641C1201.59 203.641 1212.9 200.46 1221.1 193.972L1220.48 193.188Z" fill="black" mask="url(#path-1-outside-1_460_7)"/>
</svg>
